<svg xmlns="http://www.w3.org/2000/svg" xmlns:xlink="http://www.w3.org/1999/xlink" width="410.5" height="65.44" viewBox="0 0 410.5 65.44"><defs><clipPath id="a"><rect width="410.5" height="65.44" fill="none"/></clipPath><clipPath id="b"><path d="M23.952,7.945a4.1,4.1,0,1,0,.074,0Z" transform="translate(-19.815 -7.945)" fill="none"/></clipPath><linearGradient id="c" y1="1" x2="1" gradientUnits="objectBoundingBox"><stop offset="0" stop-color="#38b8ef"/><stop offset="1" stop-color="#0057aa"/></linearGradient><clipPath id="d"><path d="M39.673,29.693c-10.622-14.605-27.254-9.91-29.309-3.672,3.919-4.672,15.231-3.782,20.977,4.158,6.444,7.432,3.837,20.94-1.68,24.488,13.729-1.753,22.518-19.65,17.448-32.62C44.035,11.76,35.5,5.92,32.082,4.03c5.566,3.452,12.861,18.119,7.591,25.662M32.082,4.03a6.518,6.518,0,0,0-.855-.445c.227.11.516.257.855.445M30.7,3.4a4.39,4.39,0,0,1,.523.182,2.927,2.927,0,0,0-.578-.241c-.024,0-.006.02.055.059" transform="translate(-10.364 -3.344)" fill="none"/></clipPath><linearGradient id="e" y1="1" x2="1" y2="1" xlink:href="#c"/><clipPath id="f"><path d="M5.033,20.743A29.2,29.2,0,0,0,3.964,35.162,26.775,26.775,0,0,0,8.2,45.672c2.511,4.062,7.71,7.322,11.32,8.3a16.782,16.782,0,0,0,9.167-.2c2.535-.686,5.031-2.284,5.556-3.9s-1.166-1.07-1.643-.947a32.779,32.779,0,0,1-6.7.423,8.055,8.055,0,0,1-3.429-1.784c-.441-.353-.018-.423.408-.441.149,0,.678.008,1.329.02a28.71,28.71,0,0,0,3.258-.043c.688-.133.241-.7-.047-1.17s-2.264-.631-2.754-.849-3.527-2.18-4.182-2.554a3.375,3.375,0,0,0-3.223.073c-1.237-1.551-7.856-8.448-6.7-17.223A30.339,30.339,0,0,1,25.661,2.846S9.616,5.579,5.033,20.743" transform="translate(-3.506 -2.846)" fill="none"/></clipPath><linearGradient id="g" x1="-0.05" x2="0" y2="1" gradientUnits="objectBoundingBox"><stop offset="0" stop-color="#a9c300"/><stop offset="1" stop-color="#4ca223"/></linearGradient></defs><g transform="translate(0 0)"><g transform="translate(0 0)"><g clip-path="url(#a)"><path d="M32.722,3.068A29.651,29.651,0,1,1,3.066,32.724,29.651,29.651,0,0,1,32.722,3.068m0-3.068A32.72,32.72,0,1,0,65.44,32.724,32.759,32.759,0,0,0,32.722,0" transform="translate(0 0)" fill="#00a2e9"/></g></g><g transform="translate(38.846 15.576)"><g clip-path="url(#b)"><rect width="8.357" height="8.316" transform="translate(-0.04 0)" fill="url(#c)"/></g></g><g transform="translate(20.318 6.556)"><g clip-path="url(#d)"><rect width="41.815" height="51.323" transform="translate(0 0)" fill="url(#e)"/></g></g><g transform="translate(6.874 5.58)"><g clip-path="url(#f)"><rect width="31.624" height="52.105" transform="translate(-0.367 0)" fill="url(#g)"/></g></g><g transform="translate(0 0)"><g clip-path="url(#a)"><path d="M56.209,21.783c1.776,0,2.643.616,2.643,2.621v6.679c0,2.006-.867,2.643-2.643,2.643h-6.52c-1.71,0-2.621-.569-2.621-2.643V24.4c0-2.051.912-2.621,2.621-2.621H51.7V20.1H43.511c-.478,0-1.368-.071-1.368-1.186,0-.867.251-1.368,1.368-1.368h18.92c.5,0,1.366.069,1.366,1.186,0,.867-.251,1.368-1.366,1.368H54.225v1.686Zm6.632,13.084c0,2.188-.935,2.849-2.827,2.849H45.905c-1.868,0-2.827-.637-2.827-2.849V22.922c0-.569.114-1.39,1.231-1.39.912,0,1.459.251,1.459,1.39V34.411a.7.7,0,0,0,.774.8H59.354c.523,0,.774-.251.774-.8V22.922c0-.592.137-1.39,1.255-1.39.957,0,1.459.274,1.459,1.39ZM51.7,26.569V24.04H50.077c-.57,0-.684.318-.684.661v1.868Zm0,2.235h-2.3v1.984c0,.41.182.661.684.661H51.7Zm2.529-2.235h2.256V24.7c0-.386-.137-.661-.661-.661h-1.6Zm0,2.235v2.645h1.6a.579.579,0,0,0,.661-.661V28.8Z" transform="translate(40.477 16.849)" fill="#0057aa"/><path d="M67.69,27.314c-.343.318-.547.5-.776.682a9.97,9.97,0,0,1,2.941,7.044c0,3.625-2.37,3.625-4.058,3.625-1.388,0-2.1,0-2.1-1.208,0-1.025.774-1.025,1.617-1.025,1.345,0,2.166,0,1.984-2.3-2.737,2.256-6.222,3.829-7,3.829-.639,0-1.027-.706-1.027-1.345,0-.682.182-.751,1.892-1.366a19.732,19.732,0,0,0,5.656-3.192,7.34,7.34,0,0,0-.274-.684,17.645,17.645,0,0,1-6.293,3.147c-.635,0-.912-.639-.912-1.186,0-.661.208-.729,1.3-1.094a17.659,17.659,0,0,0,4.9-2.46,3.714,3.714,0,0,0-.408-.48A14.831,14.831,0,0,1,60.282,31.3c-.708,0-.98-.729-.98-1.208,0-.753.206-.8,2.076-1.368a12.745,12.745,0,0,0,3.007-1.412H62.926c-1.939,0-2.349-.433-2.349-2.394V23.575a1.488,1.488,0,0,1-.365.045A1.3,1.3,0,0,1,59.052,22.5c-.116.32-.184.5-.253.708V37.433a1.335,1.335,0,1,1-2.666,0V28.247a1.127,1.127,0,0,1-.957.525,1.63,1.63,0,0,1-1.5-1.71c0-.478.112-.639,1-2.121a20.268,20.268,0,0,0,2.505-6.221c.276-.98.414-1.482,1.437-1.482.5,0,1.459.18,1.459,1.139a16.325,16.325,0,0,1-.659,3.031c.249-.227,1.5-1.163,1.731-1.39a13.118,13.118,0,0,0,1.868-2.029c.547-.684.819-.912,1.368-.912.569,0,1.368.3,1.368,1.025a.772.772,0,0,1-.071.365H69.97c.639,0,1.96,0,1.96,1.413,0,.592-.206.957-1.049,1.733H72.5c1.915,0,2.349.41,2.349,2.394v.912c0,1.937-.39,2.394-2.349,2.394H70.219c.343,1.117.639,1.847.821,2.325.09-.047.98-.8,1.482-1.186a1.4,1.4,0,0,1,.89-.365,1.352,1.352,0,0,1,1.321,1.323c0,.455-.045.8-2.623,2.415a18.494,18.494,0,0,0,3.078,3.852,1.4,1.4,0,0,1,.48,1,1.512,1.512,0,0,1-1.37,1.5c-1.845,0-5.24-6.634-6.358-10.873ZM66.459,23.62H63.632a.46.46,0,0,0-.523.525v.637c0,.273.09.523.523.523h2.827Zm1.321-2.006c.274-.161.89-.661.89-.935,0-.3-.32-.3-.433-.3H64.361a14.788,14.788,0,0,1-1.184,1.231ZM68.9,23.62v1.686H71.77c.274,0,.523-.09.523-.523v-.637a.46.46,0,0,0-.523-.525Z" transform="translate(51.551 16.403)" fill="#0057aa"/><path d="M65.422,22.39c0-1.115.661-1.231,1.184-1.231h6.5c.5,0,1.07.092,1.163.98a13.438,13.438,0,0,0,3.942-3.964,2.051,2.051,0,0,1,1.939-1.051,2,2,0,0,1,1.892.98,15.809,15.809,0,0,0,3.807,4.172c.3.229.819.639.98.753a1.32,1.32,0,0,1,.318.867,1.623,1.623,0,0,1-1.39,1.641c-1.184,0-4.058-3.213-5.219-5.174-.137-.227-.229-.365-.388-.365-.182,0-.32.2-.388.318-.8,1.3-3.921,4.719-5.174,4.719a1.516,1.516,0,0,1-1.278-1.413h-6.7c-.341,0-1.184,0-1.184-1.231m1.8-2.188a1.047,1.047,0,0,1-1.208-1.184c0-1.186.819-1.21,1.208-1.21h5.221a1.047,1.047,0,0,1,1.208,1.186c0,1.163-.774,1.208-1.208,1.208Zm0,6.724c-.341,0-1.208,0-1.208-1.208,0-1.186.819-1.208,1.208-1.208h5.083c.343,0,1.186,0,1.186,1.208,0,1.139-.753,1.208-1.186,1.208Zm0,3.329c-.341,0-1.208,0-1.208-1.21a1.046,1.046,0,0,1,1.208-1.161h5.083a1.033,1.033,0,0,1,1.186,1.139c0,1.231-.821,1.231-1.255,1.231ZM73.4,35.976c0,1.915-.386,2.37-2.347,2.37H68.476c-1.915,0-2.349-.433-2.349-2.37v-2.37c0-1.96.433-2.394,2.37-2.394h2.531c1.937,0,2.37.433,2.37,2.394Zm-2.37-2.029a.484.484,0,0,0-.547-.547H69.3a.493.493,0,0,0-.547.547v1.527a.5.5,0,0,0,.547.549h1.186a.494.494,0,0,0,.547-.549Zm4.1,1.8a19.21,19.21,0,0,0,8.093-3.694c.251-.182,1.5-1.413,1.6-1.48a.939.939,0,0,1,.616-.251,1.47,1.47,0,0,1,1.321,1.39c0,.843-1.278,1.937-2.211,2.666a20.487,20.487,0,0,1-9.393,4.2c-.888,0-1.231-.867-1.231-1.506a1.3,1.3,0,0,1,1.21-1.321m5.2-9.393c-1.688,1.278-4.172,2.554-4.878,2.554s-1.186-.821-1.186-1.437c0-.661.365-.819,1.688-1.39A14.311,14.311,0,0,0,79.439,23.9c.89-.776,1-.89,1.368-.89a1.342,1.342,0,0,1,1.253,1.368c0,.684-1.116,1.527-1.731,1.982m-4.536,4.56a17.714,17.714,0,0,0,6.632-3.944,1.255,1.255,0,0,1,.89-.478,1.375,1.375,0,0,1,1.276,1.3c0,.478-.386,1-1.71,2.074-2.621,2.074-6.246,3.739-7.179,3.739s-1.165-1.025-1.165-1.3c0-.935.229-1.025,1.255-1.39" transform="translate(62.835 16.447)" fill="#0057aa"/><path d="M83.65,23.882V18.344a1.011,1.011,0,0,1,1.117-1.184,1.029,1.029,0,0,1,1.163,1.184v5.538h2.051a1.056,1.056,0,0,1,1.231,1.165c0,.98-.365,1.321-1.231,1.321H86.318a18.8,18.8,0,0,0,1.755,2.849c1.072,1.3,1.139,1.39,1.139,1.915,0,.753-.569,1.5-1.184,1.5-.388,0-.708-.273-1.049-.843-.32-.523-.888-1.6-1.049-1.915V34.3a1.049,1.049,0,0,1-.89,1.208h1.847c.274,0,1.049,0,1.3.684a14.576,14.576,0,0,0,1.231-4.809,30.751,30.751,0,0,0,.206-3.26V20.875c0-1.619.3-2.441,2.1-2.713a30.513,30.513,0,0,0,3.168-.637,5.436,5.436,0,0,1,1.415-.3c1.161,0,1.253,1.278,1.253,1.572,0,.914-.251,1.255-4.65,1.939-.661.114-.708.365-.708.98v2.188h4.719c.41,0,1.347,0,1.347,1.413,0,.547-.071,1.413-.98,1.413h-.616V37.355a1.191,1.191,0,0,1-1.231,1.39c-1,0-1.392-.455-1.392-1.39V26.733H92.2V28.4a29.459,29.459,0,0,1-1.116,8.138c-.708,1.984-1.117,1.984-1.572,1.984a1.758,1.758,0,0,1-1.529-.819,1.309,1.309,0,0,1-1.094.386H80.094c-1.776,0-2.643-.616-2.643-2.645V19.166c0-.457.067-1.368,1.163-1.368.8,0,1.345.227,1.345,1.368v5.858c.069-.912.5-1.141,1.231-1.141Zm-2.666,6.109a22.285,22.285,0,0,0,2.256-3.623H81.19a1.052,1.052,0,0,1-1.231-.98v6.085a7.566,7.566,0,0,1,1.025-1.482m2.666.388a10.925,10.925,0,0,1-1.163,1.915c-.706.957-.867,1.139-1.276,1.139a1.371,1.371,0,0,1-1.253-1.025v2.325a.7.7,0,0,0,.774.774h3.784A1.02,1.02,0,0,1,83.65,34.3Zm-.935-10.371a6.034,6.034,0,0,1,.57,2.051c0,.8-.912.959-1.231.959-.661,0-.8-.457-.98-1.117a13.359,13.359,0,0,0-.547-1.459,2.414,2.414,0,0,1-.273-1c0-.912,1.094-.933,1.184-.933.639,0,.776.294,1.276,1.5m6.771-.684a11.773,11.773,0,0,1-.912,2.553c-.3.684-.5,1.141-1.094,1.141-.457,0-1.21-.32-1.21-1a12.742,12.742,0,0,1,.708-1.8c.069-.206.386-1.141.478-1.323a.829.829,0,0,1,.867-.457c.457,0,1.163.343,1.163.89" transform="translate(74.388 16.482)" fill="#0057aa"/><path d="M104.457,18.264c.5,0,2.439,0,2.439,2.029a21.4,21.4,0,0,1-6.222,12.355c-2.668,2.574-6.087,4.217-7.226,4.217a1.611,1.611,0,0,1-1.459-1.619c0-.843.455-1.049,1.823-1.662a17.706,17.706,0,0,0,7.91-7.456,12.912,12.912,0,0,0,1.641-4.489c0-.5-.388-.5-.776-.5h-5.2c-.914,0-.959.092-1.574,1.049a21.756,21.756,0,0,1-3.67,4.331,2.209,2.209,0,0,1-1.5.776A1.685,1.685,0,0,1,89,25.741c0-.525.227-.708,1.094-1.506a18.139,18.139,0,0,0,3.715-4.65c.774-1.3,1.413-1.321,2.872-1.321Z" transform="translate(85.484 17.542)" fill="#0057aa"/><path d="M103.248,29.17c0,.661-.206,1.413-1.527,1.413-1.025,0-1.551-.388-1.551-1.413v-9.8c0-.569.116-1.413,1.529-1.413.957,0,1.549.343,1.549,1.413ZM111.478,19c0-.547.112-1.413,1.5-1.413,1,0,1.551.388,1.551,1.413V25.25c0,3.305-.3,6.769-3.1,9.3-1.731,1.551-4.491,2.827-5.4,2.827a1.62,1.62,0,0,1-1.5-1.71c0-.731.251-.845,1.662-1.461,4.193-1.8,5.289-4.672,5.289-8.183Z" transform="translate(96.209 16.895)" fill="#0057aa"/><path d="M127.774,31.049a1.369,1.369,0,0,1,1.549,1.506,1.359,1.359,0,0,1-1.549,1.525h-17.1a1.369,1.369,0,0,1-1.551-1.5,1.36,1.36,0,0,1,1.551-1.527Zm-1.733-12.331a1.361,1.361,0,0,1,1.549,1.5,1.36,1.36,0,0,1-1.549,1.527H112.5a1.369,1.369,0,0,1-1.551-1.5,1.369,1.369,0,0,1,1.551-1.527Z" transform="translate(104.813 17.978)" fill="#0057aa"/><path d="M122.091,20.942c.684,0,.914.41,1.368,1.163,1.345,2.233,1.527,2.69,1.527,3.237,0,.751-.867,1.208-1.5,1.208-.684,0-.821-.274-1.368-1.39-.2-.388-1.139-1.96-1.3-2.28a1.711,1.711,0,0,1-.227-.706c0-.753.821-1.231,1.5-1.231m12.767,5.105a14.8,14.8,0,0,1-8.595,9.118,3.743,3.743,0,0,1-1.459.433,1.5,1.5,0,0,1-1.321-1.551c0-.661.2-.751,1.641-1.435,2.735-1.276,6.542-3.26,7.863-10.259.251-1.345.365-1.96,1.459-1.96a1.327,1.327,0,0,1,1.482,1.278,20.842,20.842,0,0,1-1.07,4.376m-8.206-6.109c.592,0,.888.251,1.8,1.937a7.938,7.938,0,0,1,1,2.6c0,.729-.845,1.208-1.527,1.208s-.776-.182-1.572-1.915c-.365-.751-.525-1.07-.959-1.823a1.636,1.636,0,0,1-.251-.774,1.42,1.42,0,0,1,1.506-1.231" transform="translate(115.819 19.15)" fill="#0057aa"/><path d="M145.337,18.264c.5,0,2.439,0,2.439,2.029a21.4,21.4,0,0,1-6.222,12.355c-2.668,2.574-6.087,4.217-7.226,4.217a1.611,1.611,0,0,1-1.459-1.619c0-.843.455-1.049,1.823-1.662a17.691,17.691,0,0,0,7.908-7.456,12.88,12.88,0,0,0,1.643-4.489c0-.5-.388-.5-.776-.5h-5.2c-.912,0-.957.092-1.572,1.049a21.829,21.829,0,0,1-3.67,4.331,2.209,2.209,0,0,1-1.5.776,1.683,1.683,0,0,1-1.641-1.551c0-.525.227-.708,1.094-1.506a18.182,18.182,0,0,0,3.715-4.65c.774-1.3,1.414-1.321,2.872-1.321Z" transform="translate(124.747 17.542)" fill="#0057aa"/><path d="M151.769,22.857a54.337,54.337,0,0,1,6.679,3.58c2.027,1.321,2.325,1.5,2.325,2.255a1.937,1.937,0,0,1-1.664,1.87c-.457,0-.637-.137-2.257-1.368a37.159,37.159,0,0,0-5.083-3.282V36.852c0,.388,0,1.413-1.435,1.413-1.255,0-1.619-.478-1.619-1.413V20.508H141.6a1.217,1.217,0,0,1-1.414-1.321c0-1.139.457-1.551,1.414-1.551h18.76a1.237,1.237,0,0,1,1.415,1.345c0,1.163-.457,1.527-1.415,1.527h-8.593Z" transform="translate(134.645 16.939)" fill="#0057aa"/><path d="M155.389,29.138c-.478.047-1.937.182-2.3.182-.3,0-1.253,0-1.253-1.343,0-1.117.729-1.165,1.572-1.186.569-.753.865-1.163,1.115-1.482a19.219,19.219,0,0,0-1.755-1.96c-.753-.708-1-.959-1-1.506a1.349,1.349,0,0,1,1.21-1.366,1.185,1.185,0,0,1,.569.182c.388-.592.753-1.255,1.278-2.235.478-.91.637-1.229,1.253-1.229.523,0,1.527.41,1.527,1.184,0,.821-1.551,3.1-2.211,4.011.388.457.525.616.639.753.867-1.3,1.276-2.006,1.868-3.076.274-.48.547-.98,1.163-.98s1.321.478,1.321,1.07a7.6,7.6,0,0,1-1.208,2.188c-1.025,1.506-2.119,2.941-3.282,4.331.639-.022,1.5-.09,2.1-.135a4.411,4.411,0,0,1-.32-1.255.987.987,0,0,1,1.072-.888c.523,0,.751,0,1.776,3.282-.09-1.231.753-1.253,1.413-1.3.525-.89,1.574-3.125,1.778-3.6.592-1.435.729-1.755,1.5-1.755.616,0,1.459.32,1.459,1.072a3.656,3.656,0,0,1-.569,1.5,28.905,28.905,0,0,1-1.437,2.735c1.141-.024,2.576-.045,4.127-.137-.478-.637-.616-.819-1-1.345a1.436,1.436,0,0,1-.365-.819,1.325,1.325,0,0,1,1.323-1.163,1.185,1.185,0,0,1,.888.433,32.076,32.076,0,0,1,2.188,2.78c.914,1.323,1.186,1.688,1.186,2.166a1.421,1.421,0,0,1-1.437,1.276,1,1,0,0,1-.888-.478c-.092-.114-.41-.639-.478-.753-1.527.137-3.054.274-4.582.388a18.513,18.513,0,0,1,2.211,1.07c.751.457,1.047.729,1.047,1.321A1.288,1.288,0,0,1,167.72,32.4a1.819,1.819,0,0,1-.98-.412c-.706-.431-1.025-.637-2.1-1.208-.821-.431-1.049-.547-1.049-1.139a1.25,1.25,0,0,1,.341-.888c-.592.045-1.982.09-2.188.09a1.062,1.062,0,0,1-1.047-.5,2.461,2.461,0,0,1,.09.616c0,.708-.729.98-1.231.98-.684,0-.8-.455-.957-1.163-.616.092-.821.114-1.027.137v8.571a1.034,1.034,0,0,1-1.117,1.208c-1.07,0-1.07-.888-1.07-1.208Zm-.569,2.211a33.419,33.419,0,0,1-.57,4.582c-.137.776-.3,1.278-1.072,1.278-.478,0-1.253-.229-1.253-.98a5.322,5.322,0,0,1,.2-1.186,25.656,25.656,0,0,0,.549-3.715c.045-.5.09-1.141,1.07-1.141a1.013,1.013,0,0,1,1.072,1.163m5.972.251a.835.835,0,0,1,.867-.525c.114,0,1.276,0,1.276,1a20.3,20.3,0,0,1-.753,3.784c-.41,1.39-.637,1.778-1.366,1.778-.616,0-1.437-.365-1.437-1.163a3.035,3.035,0,0,1,.3-1.025,1.116,1.116,0,0,1-.365.069c-.819,0-.89-.343-1.025-1.8-.045-.388-.251-2.507-.251-2.621,0-.774.843-.843,1.025-.843.753,0,.843.457.935.98.227,1.139.272,1.755.341,2.325.069-.32.343-1.71.457-1.96m1.96-9.369c-.821.845-1.163,1.139-1.619,1.139a1.542,1.542,0,0,1-1.435-1.435c0-.455.272-.706.867-1.208a16.469,16.469,0,0,0,2.6-2.849c.41-.5.661-.663,1.072-.663.682,0,1.48.639,1.366,1.345-.09.57-1.617,2.439-2.849,3.67m2.986,13.017c0,.592.341.592.912.592.867,0,.98-.069,1.094-.98.114-.821.343-1.117,1-1.117,1.229,0,1.229.774,1.229,1.184a6.007,6.007,0,0,1-.569,2.69c-.455.776-1.3.776-2.576.776-2.666,0-3.419-.161-3.419-2.576V32.649a1.033,1.033,0,0,1,1.163-1.208c1.025,0,1.163.637,1.163,1.208Zm5.2-16.46a27.044,27.044,0,0,0,1.892,1.984c.523.5.639.729.639,1.117a1.522,1.522,0,0,1-1.415,1.435c-.8,0-2.051-1.413-2.711-2.188-.639-.729-1.733-2.006-1.733-2.69a1.456,1.456,0,0,1,1.5-1.253c.457,0,.48.022,1.825,1.594m1.527,14.088a14.721,14.721,0,0,1,1,3.374c0,1.208-1.255,1.231-1.482,1.231-.914,0-1.027-.478-1.323-1.8a21.8,21.8,0,0,0-.912-2.872,2.514,2.514,0,0,1-.2-.867c0-.888,1.025-1.07,1.276-1.07.8,0,.98.32,1.641,2.006" transform="translate(145.763 16.515)" fill="#0057aa"/><path d="M175.273,37.356c0,.365,0,1.366-1.459,1.366-1.321,0-1.48-.8-1.48-1.366v-4.9h-5.381c-2.006,0-3.054-.661-3.054-3.054V23.792c0-2.37,1.027-3.052,3.054-3.052h5.381V18.481c0-.386.043-1.345,1.39-1.345,1.116,0,1.549.388,1.549,1.345v2.258h5.448c2.074,0,3.054.729,3.054,3.052V29.4c0,2.325-.957,3.054-3.054,3.054h-5.448Zm-2.939-13.882H167.8a.883.883,0,0,0-1,1V28.74a.883.883,0,0,0,1,1h4.536Zm2.939,6.268h4.605a.874.874,0,0,0,.98-1V24.476c0-.684-.32-1-.98-1h-4.605Z" transform="translate(157.417 16.459)" fill="#0057aa"/><path d="M183.988,18.458c0-.41,0-1.321,1.39-1.321,1.368,0,1.6.523,1.6,1.321V35.281h4.582a.747.747,0,0,0,.843-.843V22.1c0-.41,0-1.39,1.415-1.39,1.39,0,1.594.594,1.594,1.39V35.257s-1.025,2.851-2.849,2.851H178.382c-1.823,0-2.851-.616-2.851-2.851V22.1c0-.41,0-1.39,1.392-1.39,1.366,0,1.594.547,1.594,1.39V34.438a.747.747,0,0,0,.845.843h4.627Z" transform="translate(168.59 16.46)" fill="#0057aa"/><path d="M188.806,31.641c0,.182-.137,1.913-.32,3.007-.32,1.894-.433,2.166-1.025,2.166a.76.76,0,0,1-.843-.684,15.445,15.445,0,0,1,.365-1.549,28.153,28.153,0,0,0,.41-3.009c.069-.594.388-.616.821-.616a.59.59,0,0,1,.592.684m5.334-10.3h1.482c.273,0,1.139,0,1.139.957,0,.8-.547,1-1.139,1H194.14v1.321H195.6a1.014,1.014,0,1,1,0,2.006H194.14V28.13h.682c1.278,0,2.121.137,2.121,1.755a36.2,36.2,0,0,1-.569,6.109c-.457,1.96-1.117,2.211-3.262,2.211-1.639,0-2.439,0-2.439-1.345,0-1.255.845-1.255,1.529-1.255,1.366,0,1.459,0,1.686-.294.569-.729.684-3.535.684-4.515,0-.478-.388-.478-.57-.478h-3.852c-2.1,0-2.553-.455-2.553-2.553v-7.66c0-2.1.455-2.553,2.553-2.553h5.789a1.028,1.028,0,0,1,1.21,1.117c0,.912-.343,1.253-1.21,1.253h-1.8Zm-3.6,10.257c.045.547.114,2.029.114,2.988,0,.888,0,1.229-.729,1.229-.525,0-.616-.32-.616-.57,0-.159.045-.8.045-.933.024-.661.024-1.6.024-1.87V31.391c.045-.3.386-.365.592-.365.5,0,.547.227.57.569m1.39-10.257V19.924h-1.413a.488.488,0,0,0-.547.547v.867Zm0,1.96h-1.96v1.321h1.96Zm0,3.327h-1.96v.935a.5.5,0,0,0,.547.57h1.413Zm.274,5.45c.022.114.318,2.188.318,2.551,0,.48-.433.549-.682.549-.525,0-.525-.274-.57-.867-.045-.867-.161-1.733-.206-2.1-.023-.251-.069-.729-.069-.751,0-.412.5-.433.525-.433.5,0,.523.114.684,1.049m1.639-.274c.092.365.48,1.755.48,1.982,0,.433-.457.57-.684.57-.478,0-.525-.273-.639-.957-.045-.32-.386-2.006-.386-2.051,0-.161.159-.388.616-.388.386,0,.433.159.614.843m13.929-6.817c0,1.8-.661,2.645-2.621,2.645.41,4.172,1.71,6.177,1.96,6.542,1.276,1.892,1.366,1.96,1.366,2.439a1.707,1.707,0,0,1-1.662,1.6,1.15,1.15,0,0,1-.821-.341,9.449,9.449,0,0,1-1.345-1.96,21.008,21.008,0,0,1-2.074-8.275h-1.733v1.186a22.1,22.1,0,0,1-1.3,8.046c-.5,1.163-.867,1.437-1.482,1.437-.57,0-1.6-.433-1.6-1.276,0-.388.045-.5.753-2.211a20.078,20.078,0,0,0,1.047-6.428V20.13c0-2.1.935-2.645,2.645-2.645h4.217c1.8,0,2.645.637,2.645,2.645Zm-6.862-.045h3.374c.57,0,.8-.274.8-.774V20.882a.713.713,0,0,0-.8-.8h-2.576a.713.713,0,0,0-.8.8Z" transform="translate(179.238 16.794)" fill="#0057aa"/><path d="M211.189,19.848c.159-.341.821-1.868,1-2.143a1.448,1.448,0,0,1,1.3-.569c1.1,0,1.733.5,1.733,1.208,0,.159,0,.251-.32.8-.318.57-.365.637-.41.706h4.217a1.12,1.12,0,0,1,1.276,1.255,1.113,1.113,0,0,1-1.276,1.253H199.632a1.119,1.119,0,0,1-1.276-1.253,1.12,1.12,0,0,1,1.276-1.255h4.286c-.137-.3-.388-.8-.547-1.094a.9.9,0,0,1-.092-.433c0-.888.935-1.163,1.733-1.163a1.411,1.411,0,0,1,1.345.729,9.419,9.419,0,0,1,.935,1.96Zm-8.844,13.676V37.31c0,.569-.116,1.39-1.3,1.39-.957,0-1.413-.365-1.413-1.39V26.163c0-2.1.457-2.576,2.553-2.576h3.99c2.1,0,2.553.457,2.553,2.576v9.824c0,.914,0,2.029-1.025,2.394a7.521,7.521,0,0,1-2.576.161c-.637,0-1.641,0-1.641-1.413,0-1.255.89-1.255,1.413-1.255.935,0,1.186,0,1.186-.616V33.524Zm0-6.017h3.739v-.843a.483.483,0,0,0-.549-.547h-2.643a.481.481,0,0,0-.547.547Zm3.739,2.28h-3.739V31.27h3.739Zm7.316,3.305c0,.388-.024,1.255-1.3,1.255-1.07,0-1.459-.367-1.459-1.255V24.91c0-.388,0-1.231,1.3-1.231,1.072,0,1.461.341,1.461,1.231Zm5.356,2.8c0,2.666-1.366,2.666-4.011,2.666a11.136,11.136,0,0,1-2.211-.137,1.325,1.325,0,0,1-.708-1.3c0-1.231.753-1.368,1.278-1.368.3,0,1.662.047,1.937.047.547,0,.89-.116.89-.776V24.477c0-.592.159-1.255,1.321-1.255,1,0,1.5.251,1.5,1.255Z" transform="translate(190.512 16.46)" fill="#0057aa"/><path d="M57.26,4.314a.959.959,0,0,1,1.1,1.012.964.964,0,0,1-1.1,1.029H45.407a.653.653,0,0,0-.741.741v10.39c0,.5.253.721.741.721H57.621a.99.99,0,0,1,1.121,1.031.972.972,0,0,1-1.121,1.029H44.9c-1.608,0-2.421-.561-2.421-2.421V6.735c0-1.88.814-2.421,2.421-2.421Zm-.343,7.263a.848.848,0,0,1,.976.939.848.848,0,0,1-.976.939H53.1a7.335,7.335,0,0,0,3.939,2.4c.363.108.759.253.759.9a1.068,1.068,0,0,1-1.01,1.157,8.1,8.1,0,0,1-5.313-3.633,7.03,7.03,0,0,1-4.952,3.6A1.084,1.084,0,0,1,45.5,16.726c0-.631.471-.776.776-.867a5.407,5.407,0,0,0,3.488-2.4H46.13a.825.825,0,0,1-.959-.921c0-.9.578-.957.959-.957h4.227c0-.018.055-.451.055-.633v-1.1H48.461c-.994,1.445-1.392,1.572-1.772,1.572a1.16,1.16,0,0,1-1.137-1.084c0-.38.09-.451.867-1.282a9.343,9.343,0,0,0,1.337-1.97,1.09,1.09,0,0,1,.957-.7,1.014,1.014,0,0,1,1.086.939,1.3,1.3,0,0,1-.2.669h6.577a.848.848,0,0,1,.976.921.848.848,0,0,1-.976.939H52.47v1.1a4.643,4.643,0,0,1-.053.633Z" transform="translate(40.8 4.144)" fill="#474645"/><path d="M66.714,15.3a1.764,1.764,0,0,1-.4,1.317,1.767,1.767,0,0,1-1.394.471H63.064v1.878c0,1.88-.486,2.043-2.405,2.043-1.155,0-1.8,0-1.8-.994a.8.8,0,0,1,.882-.9c.075,0,.688.018.743.018.341,0,.414-.125.414-.488V17.09H58.98c-1.682,0-1.77-1.1-1.77-1.77V14.108a1.126,1.126,0,0,1-.543.163,1.006,1.006,0,0,1-.9-.959,15.941,15.941,0,0,1-1.357,6.144c-.667,1.337-.994,1.482-1.462,1.482a1.152,1.152,0,0,1-1.176-.994,2.135,2.135,0,0,1,.31-.939,11.093,11.093,0,0,0,1.5-4.1,3.35,3.35,0,0,1-1.484.723c-.759,0-.9-.994-.9-1.282,0-.669.451-.849.831-.994a12.048,12.048,0,0,0,1.751-.867V10.675a1.346,1.346,0,0,1-.686.2c-.543,0-.631-.306-.921-1.082A11.139,11.139,0,0,0,51.5,8.272a1.524,1.524,0,0,1-.125-.559,1.058,1.058,0,0,1,1.065-.941c.541,0,.743.435,1.337,1.79V7.46c0-1.627.723-2.078,2.1-2.078h3.888V4.821c0-.794.737-.886,1.063-.886.545,0,1.157.145,1.157.886v.561h5.4c.414,0,1.065.09,1.065.867,0,.669-.414.9-1.065.9H61.76A.691.691,0,0,1,62.268,8h5.185c.363,0,.906.018.906.849,0,.814-.488.886-.906.886H64.438a11.147,11.147,0,0,0,1.208,1.21c.127-.143.635-.814.759-.939a.61.61,0,0,1,.472-.163c.433,0,.972.325.972.741,0,.343-.594.976-.884,1.282.182.092.976.525,1.139.633a.643.643,0,0,1,.38.633,1.034,1.034,0,0,1-.978,1.1,1.39,1.39,0,0,1-.792-.273Zm-8.781,4.407a5.53,5.53,0,0,1-2.062.994.955.955,0,0,1-.919-.976c0-.488.163-.559,1.264-1.137a11.188,11.188,0,0,0,1.678-1.066,1.008,1.008,0,0,1,.669-.253.95.95,0,0,1,.941.957c0,.345-.361.688-1.57,1.482m-2.151-6.63a.915.915,0,0,1,.359-.543c.271-.216.743-.488,1.014-.686-.216-.235-.471-.506-.688-.723a.714.714,0,0,1-.251-.506.968.968,0,0,1,.939-.794c.251,0,.453.108,1.264,1.029a7.192,7.192,0,0,0,.974-1.119H56.9c-.541,0-.9-.163-.9-.9S56.488,8,56.9,8h3.417c.253-.669.288-.741.433-.849H56.412a.548.548,0,0,0-.629.614Zm3.541.471h5.329v-.363a.381.381,0,0,0-.431-.433H59.758c-.365,0-.435.2-.435.433Zm0,1.317v.38c0,.253.09.451.435.451H64.22c.359,0,.431-.235.431-.451v-.38Zm4.317-3.505a6.4,6.4,0,0,1-1.172-1.625h-.957a13.092,13.092,0,0,1-1.139,1.625Zm1.429,5.909c.253,0,.325.037.921.471a16.883,16.883,0,0,0,2.06,1.21.749.749,0,0,1,.433.688,1.046,1.046,0,0,1-1.012,1.047,5.856,5.856,0,0,1-1.9-.939c-.5-.325-1.443-.941-1.443-1.5a.977.977,0,0,1,.939-.976" transform="translate(49.169 3.78)" fill="#474645"/><path d="M63.965,17.766c-1.555,3.109-1.825,3.109-2.258,3.109A1.2,1.2,0,0,1,60.5,19.809c0-.416.145-.633.9-1.843a27.71,27.71,0,0,0,1.843-3.6.881.881,0,0,1,.867-.651,1.048,1.048,0,0,1,1.084.976,12.113,12.113,0,0,1-1.227,3.07M61.579,8.842a5.354,5.354,0,0,1,2.113,1.082c1.049.725,1.194,1,1.194,1.339a1.278,1.278,0,0,1-1.121,1.229c-.306,0-.433-.092-1.5-.886-.2-.145-1.084-.723-1.265-.849a.809.809,0,0,1-.433-.849,1.153,1.153,0,0,1,1.012-1.066m.506-4.7a6.079,6.079,0,0,1,2.1,1c1.066.649,1.319.849,1.319,1.353a1.273,1.273,0,0,1-1.084,1.266c-.308,0-.378-.055-1.482-.8-.233-.145-1.282-.759-1.482-.9a.778.778,0,0,1-.416-.776,1.2,1.2,0,0,1,1.049-1.139m4.246,9.251a.949.949,0,0,1-1.1-1.047c0-.886.559-1.049,1.1-1.049h3.921V8.552h-3.2A.961.961,0,0,1,65.933,7.54c0-.812.361-1.119,1.121-1.119h3.2V5.084c0-.416.073-1.1,1.047-1.1.8,0,1.194.233,1.194,1.1V6.421h3.36a.948.948,0,0,1,1.1,1.012c0,.849-.4,1.119-1.1,1.119h-3.36V11.3h3.956a.943.943,0,0,1,1.1.994c0,.814-.378,1.1-1.1,1.1H71.011c-.686,1.9-1.645,3.976-2.06,4.842,2.006-.108,2.549-.145,4.95-.378-.378-.633-.451-.759-1.137-1.77a1.192,1.192,0,0,1-.271-.723,1.093,1.093,0,0,1,1.119-.976c.471,0,.741.18,1.517,1.284.453.667,1.1,1.625,1.753,2.8a3.111,3.111,0,0,1,.543,1.392,1.206,1.206,0,0,1-1.264,1.084.932.932,0,0,1-.921-.6c-.055-.09-.273-.541-.308-.631-3.9.561-8.691.814-8.908.814a.987.987,0,0,1-1.084-1.121,1.032,1.032,0,0,1,.506-.939c.163-.09.273-.108,1.049-.127a35.682,35.682,0,0,0,2.058-4.95Z" transform="translate(58.103 3.825)" fill="#474645"/><path d="M76.979,5.174c0-.325,0-1.174,1.247-1.174s1.264.814,1.264,1.174V6.909a14.3,14.3,0,0,0,2.349,8.059,11.883,11.883,0,0,0,3.993,3.4c.433.235.867.488.867,1.119a1.383,1.383,0,0,1-1.317,1.374c-.886,0-3.09-1.825-4.264-3.127a13.057,13.057,0,0,1-2.874-5.654,12.45,12.45,0,0,1-3.27,6.052c-1.029,1.066-3,2.729-3.9,2.729a1.4,1.4,0,0,1-1.3-1.392,1.053,1.053,0,0,1,.669-.994A11.386,11.386,0,0,0,76.6,10.45a32.8,32.8,0,0,0,.378-3.541Z" transform="translate(67.011 3.842)" fill="#474645"/><path d="M91.151,14.4c.649,0,1.608,0,1.608,1.119a2.1,2.1,0,0,1-1.012,1.555,17.148,17.148,0,0,1-1.572,1.137,27.123,27.123,0,0,0,4.554.543c.4.035,1.029.125,1.029.994a1.384,1.384,0,0,1-.253.814.937.937,0,0,1-.886.361,23.038,23.038,0,0,1-7.081-1.464,22.554,22.554,0,0,1-3.145.886A29.324,29.324,0,0,1,80,20.922a.978.978,0,0,1-.976-1.084c0-.921.67-.959,1.266-.994a23.363,23.363,0,0,0,4.644-.578A11.086,11.086,0,0,1,83,16.946a8.636,8.636,0,0,1-2.709.886,1.037,1.037,0,0,1-.994-1.1.862.862,0,0,1,.759-.9,11.629,11.629,0,0,0,4.589-2.2,1.265,1.265,0,0,1-.959-1.319V11.254c0-.669.253-.974,1.066-.974a.838.838,0,0,1,.957.921v.614c0,.235.037.433.345.469.163.02.18.02,2.113.02.9,0,1.012,0,1.084-.471s.127-.831.868-.831c.216,0,1.029.018,1.029.778a3.066,3.066,0,0,1-.29,1.264c-.306.614-.921.631-1.662.649-.253.018-1.445.018-1.715.018a5.525,5.525,0,0,1-.669.688Zm2.041-4.337c0-.163,0-.488-.488-.488H87.556c1.139.488,1.553.723,1.553,1.21a1.094,1.094,0,0,1-.939,1.066c-.163,0-.253-.035-1.066-.469-.216-.11-1.139-.525-1.3-.651a.76.76,0,0,1-.308-.6.853.853,0,0,1,.2-.561H82.116c-.4,0-.488.216-.488.488v.831c.29-.433.453-.688.923-.688a.973.973,0,0,1,1.029.9,5.5,5.5,0,0,1-1.39,2.313c-.145.18-.994,1.157-1.592,1.157a1.067,1.067,0,0,1-1.029-1.031.87.87,0,0,1,.29-.649,9.472,9.472,0,0,0,1.065-1.049,1.817,1.817,0,0,1-.433.055c-.4,0-1.139-.108-1.139-.994V10.08c0-2.041.578-2.168,2.476-2.168-.073-.18-.471-1.066-.506-1.174a3.936,3.936,0,0,1-1.229-.073.9.9,0,0,1-.541-.884c0-.939.7-.959,1.59-.959a96.274,96.274,0,0,0,9.775-.433c.451-.055,2.4-.4,2.819-.4a.956.956,0,0,1,1.029,1.084c0,.814-.451.868-1.355.994a.706.706,0,0,1,.071.343c0,.4-.271.8-.739,1.5,1.878-.018,2.729-.018,2.729,2.006v1.014c0,1.01-.886.974-1.284.957.794.867,1.012,1.1,1.012,1.517a1.1,1.1,0,0,1-1.1,1.047c-.453,0-.616-.216-1.194-.957-.233-.288-1.335-1.5-1.553-1.77a1.047,1.047,0,0,1-.271-.616,1.027,1.027,0,0,1,1.029-.9c.433,0,.686.255,1.084.633ZM86.4,7.912c-.11-.271-.11-.308-.218-.561a2.4,2.4,0,0,1-.271-.721c-.886.035-1.029.035-2.241.073a3.7,3.7,0,0,1,.471,1.21Zm-1.355,8.112A10.549,10.549,0,0,0,87.538,17.4c1.082-.471,1.788-1.012,1.788-1.194s-.2-.18-.271-.18Zm5.113-8.112a12.283,12.283,0,0,0,.849-1.572c-1.355.108-1.517.127-2.837.2a3.5,3.5,0,0,1,.506,1.372Z" transform="translate(75.901 3.833)" fill="#474645"/><path d="M99.746,17.886c0,.649.414.649,1.155.649a9.169,9.169,0,0,0,1.3-.035c.469-.11.523-.543.631-1.717.073-.7.127-1.264,1.084-1.264,1.229,0,1.229.794,1.229,1.194a7.233,7.233,0,0,1-.741,3.4c-.523.669-1.282.669-3.162.669a15.982,15.982,0,0,1-2.258-.055c-1.247-.2-1.535-1.1-1.535-2.2v-6.2H95.535c-.037,1.662-.18,4.282-1.843,6.179a7.452,7.452,0,0,1-4.209,2.474A1.344,1.344,0,0,1,88.271,19.6c0-.669.363-.8,1.445-1.212,2.656-.992,3.525-2.547,3.56-6.07H89.192c-.325,0-1.066-.02-1.066-1.066,0-.957.561-1.084,1.066-1.084H95.48V5.038c0-.271,0-1.065,1.157-1.065,1.192,0,1.212.741,1.212,1.065V10.17h6.4a.917.917,0,0,1,1.049,1.029c0,.831-.343,1.121-1.049,1.121h-4.5ZM90.98,8.31c-.163-.271-.9-1.445-1.047-1.682a1.288,1.288,0,0,1-.253-.7c0-.631.7-1.047,1.264-1.047.523,0,.814.035,2.366,2.619.4.651.416.867.416,1.084,0,.776-.9,1.119-1.3,1.119-.614,0-.706-.143-1.447-1.39m8.728.361c0-.271.018-.451.6-1.192.416-.543.957-1.517,1.337-2.1a1.023,1.023,0,0,1,.939-.561,1.267,1.267,0,0,1,1.337,1.084,6.933,6.933,0,0,1-1.282,2.349c-1.012,1.427-1.229,1.445-1.77,1.445-.343,0-1.157-.288-1.157-1.029" transform="translate(84.641 3.816)" fill="#474645"/><path d="M102.187,10.89c-.669,0-1.029-.235-1.084-.9a8.044,8.044,0,0,1-2.654,1.174,1.262,1.262,0,0,1-1.1-1.355c0-.686.433-.9.974-1.1a15.709,15.709,0,0,0,5.656-3.831c.721-.7,1.012-.974,1.951-.974s1.174.251,2.223,1.264a15.146,15.146,0,0,0,5.456,3.613c.543.218.9.416.9,1.066a1.27,1.27,0,0,1-1.157,1.335,7.666,7.666,0,0,1-2.547-1.155c-.092.776-.616.867-1.1.867Zm2.494,3.793a29.239,29.239,0,0,1-1.788,3.6c2.566-.088,3-.125,6.775-.341-.271-.345-.361-.435-1.066-1.212-.4-.433-.469-.651-.469-.886,0-.541.669-1.029,1.247-1.029a1.255,1.255,0,0,1,.919.471,27.289,27.289,0,0,1,2.405,2.692c.867,1.084,1.065,1.427,1.065,1.825a1.441,1.441,0,0,1-1.41,1.192.811.811,0,0,1-.721-.4c-.073-.108-.453-.686-.543-.812-1.878.216-3.831.361-5.746.488-.9.071-5.564.343-6.287.343-.288,0-1.119,0-1.119-1.157a.937.937,0,0,1,.812-1.049c.163-.018,1.427-.053,1.7-.053a23.392,23.392,0,0,0,1.735-3.67H98.847c-.761,0-1.1-.343-1.1-1.137a.954.954,0,0,1,1.1-1.012h14.129c.741,0,1.1.308,1.1,1.119a.958.958,0,0,1-1.1,1.029Zm4.427-5.8A17.294,17.294,0,0,1,106.453,6.5c-.273-.29-.345-.363-.508-.363s-.233.073-.506.363a18.313,18.313,0,0,1-2.656,2.384Z" transform="translate(93.498 3.745)" fill="#474645"/></g></g></g></svg>